<svg width="24" height="24" viewBox="0 0 24 24" fill="none" xmlns="http://www.w3.org/2000/svg">
<path d="M20.4 3.6H19.2V1.2C19.2 0.88174 19.0736 0.576515 18.8485 0.351472C18.6235 0.126428 18.3183 0 18 0C17.6817 0 17.3765 0.126428 17.1515 0.351472C16.9264 0.576515 16.8 0.88174 16.8 1.2V3.6H7.2V1.2C7.2 0.88174 7.07357 0.576515 6.84853 0.351472C6.62348 0.126428 6.31826 0 6 0C5.68174 0 5.37652 0.126428 5.15147 0.351472C4.92643 0.576515 4.8 0.88174 4.8 1.2V3.6H3.6C2.64522 3.6 1.72955 3.97929 1.05442 4.65442C0.379285 5.32955 0 6.24522 0 7.2V8.4H24V7.2C24 6.24522 23.6207 5.32955 22.9456 4.65442C22.2705 3.97929 21.3548 3.6 20.4 3.6Z" fill="#CBCBCB"/>
<path d="M0 20.4C0 21.3548 0.379285 22.2705 1.05442 22.9456C1.72955 23.6208 2.64522 24 3.6 24H20.4C21.3548 24 22.2705 23.6208 22.9456 22.9456C23.6207 22.2705 24 21.3548 24 20.4V10.8H0V20.4Z" fill="#CBCBCB"/>
</svg>
